<?xml version="1.0" encoding="UTF-8"?>
<svg t="1614608724844" class="icon" viewBox="0 0 1024 1024" version="1.1" xmlns="http://www.w3.org/2000/svg" p-id="3351" width="32" height="32"><path d="M721.872 239.94c-5.66 11.32-20.646 20.584-33.306 20.584H389.394c-12.658 0-27.646-9.264-33.306-20.584l-94.482-188.964c-5.658-11.32 0.066-20.584 12.722-20.584h529.302c12.656 0 18.38 9.262 12.724 20.584l-94.482 188.964z" fill="#cdcdcd" p-id="3352"></path><path d="M654.476 253.432H355.306c-16.892 0-36.044-11.834-43.596-26.944l-94.484-188.964c-4.52-9.042-4.522-18.422-0.004-25.732C221.74 4.48 230.13 0.288 240.24 0.288h529.304c10.108 0 18.498 4.192 23.018 11.502 4.52 7.31 4.52 16.69-0.002 25.732l-94.488 188.966c-7.55 15.108-26.7 26.944-43.596 26.944zM236.84 23.916c-0.026 0.452 0.106 1.59 0.968 3.316l94.484 188.964c3.72 7.442 14.69 14.224 23.014 14.224h299.17c8.322 0 19.292-6.78 23.01-14.224l94.488-188.966c0.864-1.724 0.992-2.866 0.964-3.314-0.39-0.224-1.466-0.616-3.394-0.616H240.24c-1.928 0-3.008 0.392-3.4 0.616z" p-id="3353" fill="#cdcdcd"></path><path d="M285.294 416.138c33.468 0 60.596 27.128 60.596 60.594 0 33.468-27.126 60.6-60.596 60.6a60.36 60.36 0 0 1-27.076-6.372M793.484 712.782a68.75 68.75 0 0 1-41.928 14.19c-38.128 0-69.04-30.914-69.04-69.042 0-38.126 30.91-69.04 69.04-69.04 3.804 0 7.54 0.31 11.178 0.9" fill="#cdcdcd" p-id="3354"></path><path d="M191.792 807.532a11.506 11.506 0 0 1-11.172-14.298l132.498-529.992c6.48-25.912 10.216-29.086 12.012-30.612l2.71-2.306a11.506 11.506 0 0 1 16.22 1.314 11.506 11.506 0 0 1-1.314 16.22l-1.23 1.044c-1.154 2.77-3.572 9.914-6.076 19.924L202.94 798.82a11.5 11.5 0 0 1-11.148 8.712zM813.08 807.328a11.516 11.516 0 0 1-11.156-8.714l-109.506-438.01a11.506 11.506 0 0 1 8.376-13.954 11.5 11.5 0 0 1 13.954 8.372l109.502 438.012a11.5 11.5 0 0 1-11.17 14.294z" p-id="3355" fill="#cdcdcd"></path><path d="M813.288 807.532a11.476 11.476 0 0 1-8.228-3.464l-0.2-0.204a11.496 11.496 0 0 1 0.188-16.27 11.5 11.5 0 0 1 16.268 0.184l0.196 0.2a11.5 11.5 0 0 1-0.182 16.274 11.48 11.48 0 0 1-8.042 3.28z" p-id="3356" fill="#cdcdcd"></path><path d="M501.778 1023.712c-9.158 0-18.316-2.578-25.448-7.734L187.192 806.826a11.504 11.504 0 1 1 13.488-18.642l289.136 209.15c6.238 4.51 17.618 4.528 23.866 0.03l292.886-210.68a11.506 11.506 0 1 1 13.436 18.682l-292.882 210.68c-7.108 5.108-16.228 7.666-25.344 7.666z" p-id="3357" fill="#cdcdcd"></path><path d="M813.13 807.532a11.512 11.512 0 0 1-11.172-8.774c-1.506-6.176 2.246-12.504 8.418-14.014 6.188-1.498 12.378 2.17 13.888 8.346l0.046 0.204a11.508 11.508 0 0 1-11.18 14.238zM751.594 771.848c-1.754 0-3.496-0.68-4.832-2.052l-0.156-0.16a6.906 6.906 0 0 1 9.904-9.624c2.654 2.734 2.67 7.186-0.06 9.844a6.986 6.986 0 0 1-4.856 1.992z" p-id="3358" fill="#cdcdcd"></path><path d="M682.546 821.644a6.904 6.904 0 0 1-4.04-12.508l69.178-49.76a6.904 6.904 0 0 1 8.062 11.212l-69.18 49.756c-1.214 0.88-2.626 1.3-4.02 1.3zM630.352 859.19a6.906 6.906 0 0 1-4.036-12.51l31.632-22.758a6.906 6.906 0 0 1 8.062 11.214l-31.632 22.758a6.9 6.9 0 0 1-4.026 1.296z" p-id="3359" fill="#cdcdcd"></path><path d="M751.588 771.886a6.906 6.906 0 0 1-6.712-5.318c-0.878-3.712 1.402-7.512 5.116-8.388 3.7-0.868 7.41 1.344 8.288 5.05l0.038 0.16a6.9 6.9 0 0 1-6.73 8.496z" p-id="3360" fill="#cdcdcd"></path><path d="M413.296 56.242h-115.066a6.902 6.902 0 0 1 0-13.808h115.066a6.904 6.904 0 1 1 0 13.808z" p-id="3361" fill="#cdcdcd"></path><path d="M461.624 56.242h-23.014a6.904 6.904 0 1 1 0-13.808h23.014a6.904 6.904 0 1 1 0 13.808z" p-id="3362" fill="#cdcdcd"></path><path d="M210.79 122.306a12.672 12.672 0 0 1-12.658-12.658 12.67 12.67 0 0 1 12.658-12.656 12.67 12.67 0 0 1 12.656 12.656 12.674 12.674 0 0 1-12.656 12.658z m0-23.014a10.372 10.372 0 0 0-10.358 10.356 10.372 10.372 0 0 0 10.358 10.358 10.372 10.372 0 0 0 10.356-10.358 10.37 10.37 0 0 0-10.356-10.356z" fill="#cdcdcd" p-id="3363"></path><path d="M247.46 229.17m-34.52 0a34.52 34.52 0 1 0 69.04 0 34.52 34.52 0 1 0-69.04 0Z" fill="#cdcdcd" p-id="3364"></path><path d="M234.28 277.498c-22.84 0-41.424-18.584-41.424-41.424 0-22.842 18.584-41.424 41.424-41.424 22.842 0 41.424 18.582 41.424 41.424 0 22.84-18.582 41.424-41.424 41.424z m0-69.04c-15.226 0-27.616 12.388-27.616 27.618 0 15.226 12.388 27.616 27.616 27.616s27.618-12.39 27.618-27.616c0-15.23-12.39-27.618-27.618-27.618z" p-id="3365" fill="#cdcdcd"></path><path d="M822.25 406.656h-57.532a6.904 6.904 0 1 1 0-13.808h57.532a6.906 6.906 0 1 1 0 13.808z" fill="#cdcdcd" p-id="3366"></path><path d="M793.484 435.422a6.9 6.9 0 0 1-6.902-6.902v-57.534a6.9 6.9 0 1 1 13.804 0v57.534a6.9 6.9 0 0 1-6.902 6.902z" fill="#cdcdcd" p-id="3367"></path><path d="M832.142 372.136a12.672 12.672 0 0 1-12.656-12.658c0-6.98 5.68-12.656 12.656-12.656a12.67 12.67 0 0 1 12.656 12.656 12.67 12.67 0 0 1-12.656 12.658z m0-18.41a5.76 5.76 0 0 0-5.754 5.752 5.76 5.76 0 0 0 5.754 5.754 5.76 5.76 0 0 0 5.754-5.754 5.76 5.76 0 0 0-5.754-5.752z" fill="#cdcdcd" p-id="3368"></path><path d="M777.036 270.59m-18.698 0a18.698 18.698 0 1 0 37.396 0 18.698 18.698 0 1 0-37.396 0Z" fill="#cdcdcd" p-id="3369"></path><path d="M761.018 358.54a4.58 4.58 0 0 1-3.096-1.196l-18.612-16.904a4.606 4.606 0 0 1 6.192-6.814l18.612 16.904a4.606 4.606 0 0 1-3.096 8.01z" fill="#cdcdcd" p-id="3370"></path><path d="M743.262 359.394a4.604 4.604 0 0 1-3.408-7.698l16.904-18.612a4.6 4.6 0 1 1 6.812 6.188l-16.9 18.61a4.576 4.576 0 0 1-3.408 1.512z" fill="#cdcdcd" p-id="3371"></path><path d="M199.758 336.812a4.588 4.588 0 0 1-3.092-1.196l-15.958-14.496a4.604 4.604 0 0 1 6.188-6.814l15.958 14.496a4.606 4.606 0 0 1-3.096 8.01z" p-id="3372" fill="#cdcdcd"></path><path d="M184.536 337.542a4.608 4.608 0 0 1-3.408-7.698l14.494-15.958a4.604 4.604 0 0 1 6.816 6.19l-14.496 15.958c-0.908 1-2.154 1.508-3.406 1.508z" p-id="3373" fill="#cdcdcd"></path></svg>